<svg width="184" height="94" viewBox="0 0 184 94" fill="none" xmlns="http://www.w3.org/2000/svg">
<g opacity="0.5">
<circle cx="2" cy="2" r="2" fill="#5F1802"/>
<circle cx="22" cy="2" r="2" fill="#5F1802"/>
<circle cx="42" cy="2" r="2" fill="#5F1802"/>
<circle cx="122" cy="2" r="2" fill="#5F1802"/>
<circle cx="62" cy="2" r="2" fill="#5F1802"/>
<circle cx="142" cy="2" r="2" fill="#5F1802"/>
<circle cx="82" cy="2" r="2" fill="#5F1802"/>
<circle cx="162" cy="2" r="2" fill="#5F1802"/>
<circle cx="102" cy="2" r="2" fill="#5F1802"/>
<circle cx="182" cy="2" r="2" fill="#5F1802"/>
<circle cx="2" cy="38" r="2" fill="#5F1802"/>
<circle cx="22" cy="38" r="2" fill="#5F1802"/>
<circle cx="42" cy="38" r="2" fill="#5F1802"/>
<circle cx="122" cy="38" r="2" fill="#5F1802"/>
<circle cx="62" cy="38" r="2" fill="#5F1802"/>
<circle cx="142" cy="38" r="2" fill="#5F1802"/>
<circle cx="82" cy="38" r="2" fill="#5F1802"/>
<circle cx="162" cy="38" r="2" fill="#5F1802"/>
<circle cx="102" cy="38" r="2" fill="#5F1802"/>
<circle cx="182" cy="38" r="2" fill="#5F1802"/>
<circle cx="2" cy="74" r="2" fill="#5F1802"/>
<circle cx="22" cy="74" r="2" fill="#5F1802"/>
<circle cx="42" cy="74" r="2" fill="#5F1802"/>
<circle cx="122" cy="74" r="2" fill="#5F1802"/>
<circle cx="62" cy="74" r="2" fill="#5F1802"/>
<circle cx="142" cy="74" r="2" fill="#5F1802"/>
<circle cx="82" cy="74" r="2" fill="#5F1802"/>
<circle cx="162" cy="74" r="2" fill="#5F1802"/>
<circle cx="102" cy="74" r="2" fill="#5F1802"/>
<circle cx="182" cy="74" r="2" fill="#5F1802"/>
<circle cx="2" cy="20" r="2" fill="#5F1802"/>
<circle cx="22" cy="20" r="2" fill="#5F1802"/>
<circle cx="42" cy="20" r="2" fill="#5F1802"/>
<circle cx="122" cy="20" r="2" fill="#5F1802"/>
<circle cx="62" cy="20" r="2" fill="#5F1802"/>
<circle cx="142" cy="20" r="2" fill="#5F1802"/>
<circle cx="82" cy="20" r="2" fill="#5F1802"/>
<circle cx="162" cy="20" r="2" fill="#5F1802"/>
<circle cx="102" cy="20" r="2" fill="#5F1802"/>
<circle cx="182" cy="20" r="2" fill="#5F1802"/>
<circle cx="2" cy="56" r="2" fill="#5F1802"/>
<circle cx="22" cy="56" r="2" fill="#5F1802"/>
<circle cx="42" cy="56" r="2" fill="#5F1802"/>
<circle cx="122" cy="56" r="2" fill="#5F1802"/>
<circle cx="62" cy="56" r="2" fill="#5F1802"/>
<circle cx="142" cy="56" r="2" fill="#5F1802"/>
<circle cx="82" cy="56" r="2" fill="#5F1802"/>
<circle cx="162" cy="56" r="2" fill="#5F1802"/>
<circle cx="102" cy="56" r="2" fill="#5F1802"/>
<circle cx="182" cy="56" r="2" fill="#5F1802"/>
<circle cx="2" cy="92" r="2" fill="#5F1802"/>
<circle cx="22" cy="92" r="2" fill="#5F1802"/>
<circle cx="42" cy="92" r="2" fill="#5F1802"/>
<circle cx="122" cy="92" r="2" fill="#5F1802"/>
<circle cx="62" cy="92" r="2" fill="#5F1802"/>
<circle cx="142" cy="92" r="2" fill="#5F1802"/>
<circle cx="82" cy="92" r="2" fill="#5F1802"/>
<circle cx="162" cy="92" r="2" fill="#5F1802"/>
<circle cx="102" cy="92" r="2" fill="#5F1802"/>
<circle cx="182" cy="92" r="2" fill="#5F1802"/>
</g>
</svg>
